inDegrees=no
num_controls=7
num_derivatives=13
num_iterations=149
num_multipliers=7
num_parameters=0
num_slacks=7
num_states=26
objective=0.469832
objective_accelerations=0.062856
objective_balance=0.002077
objective_effort=0.020044
objective_height=0.375313
objective_ligament=0.009542
solver_duration=2109.589358
status=Solve_Succeeded
success=true
DataType=double
version=3
OpenSimVersion=4.5
endheader
time	/jointset/ground_pelvis/pelvis_tilt/value	/jointset/ground_pelvis/pelvis_tx/value	/jointset/ground_pelvis/pelvis_ty/value	/jointset/hip_l/hip_flexion_l/value	/jointset/hip_l/hip_adduction_l/value	/jointset/hip_l/hip_rotation_l/value	/jointset/back/lumbar_extension/value	/jointset/patellofemoral_l/patellar_flexion_l/value	/jointset/knee_l/knee_flexion_l/value	/jointset/knee_l/knee_adduction_l/value	/jointset/knee_l/knee_rotation_l/value	/jointset/ankle_l/ankle_angle_l/value	/jointset/subtalar_l/subtalar_angle_l/value	/jointset/ground_pelvis/pelvis_tilt/speed	/jointset/ground_pelvis/pelvis_tx/speed	/jointset/ground_pelvis/pelvis_ty/speed	/jointset/hip_l/hip_flexion_l/speed	/jointset/hip_l/hip_adduction_l/speed	/jointset/hip_l/hip_rotation_l/speed	/jointset/back/lumbar_extension/speed	/jointset/patellofemoral_l/patellar_flexion_l/speed	/jointset/knee_l/knee_flexion_l/speed	/jointset/knee_l/knee_adduction_l/speed	/jointset/knee_l/knee_rotation_l/speed	/jointset/ankle_l/ankle_angle_l/speed	/jointset/subtalar_l/subtalar_angle_l/speed	/forceset/tau_hip_flexion_l	/forceset/tau_hip_adduction_l	/forceset/tau_hip_rotation_l	/forceset/tau_knee_flexion_l	/forceset/tau_ankle_angle_l	/forceset/tau_subtalar_angle_l	/forceset/tau_lumbar_extension	lambda_cid13_p0	lambda_cid13_p1	lambda_cid13_p2	lambda_cid13_p3	lambda_cid13_p4	lambda_cid13_p5	lambda_cid14_p0	/jointset/ground_pelvis/pelvis_tilt/accel	/jointset/ground_pelvis/pelvis_tx/accel	/jointset/ground_pelvis/pelvis_ty/accel	/jointset/hip_l/hip_flexion_l/accel	/jointset/hip_l/hip_adduction_l/accel	/jointset/hip_l/hip_rotation_l/accel	/jointset/back/lumbar_extension/accel	/jointset/patellofemoral_l/patellar_flexion_l/accel	/jointset/knee_l/knee_flexion_l/accel	/jointset/knee_l/knee_adduction_l/accel	/jointset/knee_l/knee_rotation_l/accel	/jointset/ankle_l/ankle_angle_l/accel	/jointset/subtalar_l/subtalar_angle_l/accel	gamma_cid13_p0	gamma_cid13_p1	gamma_cid13_p2	gamma_cid13_p3	gamma_cid13_p4	gamma_cid13_p5	gamma_cid14_p0
0	0.05078664706005814	0.1064997222003905	0.9041345303958614	0.1266922784136757	-0.3593552780276701	-0.2411719466213367	-0.2144969558742783	0.2051545070141877	0.2051545070141877	-0.1519168570997308	-0.1705710189291575	0.09024313228550125	0.09082228874568762	0	0	0	0	0	0	0	0	0	0	0	0	0	0.1146986106064472	-0.05485278611287302	-0.006266936098687146	-0.2109872626085311	0.09058133148610011	-0.05791854623021651	-0.05351823471582069	-1.810612742745035	23.81729518091596	-2.189153005371149	20.37820739027808	-450.4196894681558	-65.57525762461192	-26.44057555013067	-6.088402019500396	-2.543180228543988	-0.8689084539523689	14.4138132855304	0.01653090980522903	2.466490390019896	-3.989207884335125	7.25506848188938	7.255068481889365	1.876431257238609	-0.4243782041656663	-0.3907690377785856	-0.1339159246468961	1.55720554762824e-08	2.084084234808551e-07	-5.172076042680427e-08	9.28686012192834e-09	7.475525053928129e-08	8.933132372079625e-08	3.079227697234301e-08
0.01	0.05049155172385923	0.1063742980518766	0.9040922974011488	0.127395062826904	-0.3593539371668856	-0.2410454863575263	-0.2147007613372494	0.2055074389177426	0.2055074389177427	-0.1518248918095229	-0.1705853606482808	0.09022245864028677	0.09081576102770125	-0.05880803820228998	-0.02494701803435322	-0.008424046533218627	0.139937930121892	0.0002569067940234237	0.0251998097895476	-0.04046207508308293	0.07024436286417832	0.07024436286417905	0.01827367713809589	-0.002823012330785579	-0.004103741528033687	-0.001307017963203557	0.112642089557242	-0.06267631301372577	-0.005998968425661198	-0.2101271324578402	0.08878589108137155	-0.05025884557758274	-0.05159748080357753	-1.887019879073702	20.41434096140422	-1.544141248008025	19.37851623755024	-450.6144771626621	-72.5212033783894	-26.44029396578417	-5.74535079009588	-2.44978898324482	-0.8257549405610158	13.69094040699583	0.02855383669822003	2.532904335700425	-4.029854693627255	6.857811353206656	6.857811353206773	1.784959164706973	-0.2044765570601431	-0.4155208416979064	-0.1293428191199746	7.704816499563326e-09	2.713167311864123e-07	-2.69431528829952e-08	2.115807675715461e-08	-8.595559516366361e-08	6.05175349866685e-08	4.223256683010808e-08
0.02	0.04961470679173696	0.1060035384445464	0.9039665035035932	0.1294786580476468	-0.3593503705836614	-0.2406697923833647	-0.2153002170257177	0.2065525526828443	0.2065525526828442	-0.1515537651034116	-0.1706265752526168	0.09016167875351552	0.09079611351269025	-0.1163499191846834	-0.04906709176325966	-0.0167121805686124	0.2761621615028734	0.000445144487939684	0.04984674207022458	-0.07913004509946106	0.1384363723093406	0.138436372309342	0.03583228318066753	-0.005374577042576745	-0.008021248311353183	-0.002623959404922664	0.1105855685080362	-0.07049983991457863	-0.005731000752636701	-0.2092670023071494	0.08699045067664291	-0.0425991449249491	-0.0496767268913346	-1.930960306397811	17.01118967740221	-0.9053677446271723	18.46138310146016	-450.1533799275815	-79.33592668595347	-26.43931244676248	-5.835170575521084	-2.377791367454633	-0.8417259543873988	13.6710735373483	0.002797089783796372	2.355914888245774	-3.630386870994165	6.844597798086174	6.844597798086149	1.733417038133756	-0.3700886803667838	-0.353522088835747	-0.1359006203500058	-1.624224771557455e-10	3.342250388919696e-07	-2.165545339186123e-09	3.302929339238088e-08	-2.466664408666085e-07	3.170374625254076e-08	5.367285668787315e-08
0.03	0.04816862852046874	0.10539522415901	0.9037582383144317	0.1329069923767413	-0.3593451757021672	-0.2400513145469764	-0.2162768553338145	0.208269871255168	0.208269871255168	-0.1511104125604175	-0.170692915393498	0.09006219065831911	0.09076321166444964	-0.1726097320460039	-0.07250408658444776	-0.0249371363246209	0.4089009283094278	0.0005902047832938445	0.07375729397977046	-0.1159068090491153	0.2046906723832479	0.204690672383247	0.0527200041209191	-0.007840112866983287	-0.01190067883035581	-0.003966710570384092	0.1063925436838479	-0.0664848885404323	-0.005090790047126183	-0.2051563793146804	0.08356453912163631	-0.04417404277771022	-0.04645630783109505	-3.060761696936162	17.77809528920884	-0.8963980006591481	18.74826453852608	-449.3963416875064	-76.91473202766447	-26.43746849184029	-5.482980817329497	-2.312895071690984	-0.8123722279719405	12.98471335870374	0.01976384086976423	2.394906333117832	-3.657700036336156	6.465334865423763	6.465334865423438	1.648774977768729	-0.1767937655944387	-0.4087864608781433	-0.135060023703108	-2.567741165985689e-09	3.743391102526714e-07	6.486853956518374e-09	3.913662721751608e-08	-3.418665924333569e-07	1.725026290150196e-08	6.234052269674196e-08
0.04	0.04616763328540899	0.1045552916188137	0.9034678251993572	0.1376446013951802	-0.3593386495494278	-0.2391964749933308	-0.2176125370572848	0.210639630578907	0.210639630578907	-0.1505017177368611	-0.1707823124390467	0.08992318167244355	0.09071656277274263	-0.2273333119430031	-0.09539074269523928	-0.03314176575120181	0.5380170993717713	0.0007113987369895203	0.09711908552166992	-0.1509387281741736	0.2689245225923858	0.2689245225923828	0.0689007392930855	-0.009985957976063808	-0.0159254264471833	-0.005373368098201404	0.1021995188596587	-0.06246993716628617	-0.004450579341615738	-0.2010457563222116	0.08013862756662962	-0.04574894063047156	-0.04323588877085622	-4.161314851856034	18.54491833041782	-0.8931714374565241	19.11082290029366	-448.0492355791504	-74.37148078769016	-26.43438341959346	-5.527923982656825	-2.267723625375319	-0.8376606885018808	12.94655438850614	-0.001976178547900537	2.246162814716494	-3.281417906074973	6.440507825132303	6.440507825132305	1.592019884516726	-0.3061505373015795	-0.3825855084007192	-0.1486818928211827	-4.86044294166328e-09	4.139831973588401e-07	1.480677473164339e-08	4.512511809811332e-08	-4.357160080385344e-07	3.092868321248489e-09	7.095102120357168e-08
0.05	0.04362617554793154	0.1034894237636712	0.9030951939319508	0.1436563937067335	-0.3593309751932288	-0.2381114880819862	-0.2192891676831991	0.2136423147060229	0.2136423147060228	-0.1497345425477555	-0.1708923774951176	0.08974362021047692	0.09065572851743489	-0.2807188625735972	-0.1176694379990104	-0.04139828630534061	0.6637278181261212	0.000823050580903641	0.1197754406850575	-0.1841070035803725	0.3312743634198597	0.3312743634198573	0.08441110890394019	-0.01197302750241359	-0.01998715629034582	-0.006792656797200193	0.09820554391604518	-0.06199806906244	-0.003863675156738732	-0.1983991959978378	0.07833025741966447	-0.04454707923132852	-0.04019496659002821	-4.553438627373236	18.02574463148295	-0.7351687810280205	18.6959062570796	-446.5915328901994	-74.59136304311119	-26.42964672587563	-5.207955599862367	-2.190924859326697	-0.8218054267387385	12.29130134602108	0.01760513907981417	2.259954390376579	-3.292473343646349	6.081517040133941	6.081517040134044	1.512142121385285	-0.1368890989191985	-0.4179929365939663	-0.1384955732694144	-7.157629035451892e-09	3.93019524318658e-07	1.362307449029672e-08	4.683447154905702e-08	-4.915274652422407e-07	-1.500947320865144e-08	7.182783940151324e-08
0.06	0.04055804530482787	0.1022041724802014	0.9026395659214291	0.1509068873512547	-0.3593222104639471	-0.2368030211143624	-0.2212890692603261	0.2172583562071292	0.2172583562071292	-0.1488159443381385	-0.1710206940341757	0.08952343620721467	0.09058071273217114	-0.3326678130682582	-0.1392674283607293	-0.04974111437423274	0.7857573659653375	0.0009294733535675152	0.1418150967775128	-0.2155929184167315	0.3915959973904938	0.3915959973904923	0.09918534339541274	-0.0136362545734642	-0.02404993470630623	-0.008209674089406453	0.09421156897243206	-0.06152620095859357	-0.003276770971860582	-0.1957526356734635	0.0765218872726996	-0.0433452178321851	-0.03715404440920021	-4.919930732712597	17.50717270291679	-0.583076532363893	18.35123865342412	-444.6130549429803	-74.69771893969597	-26.42268030031755	-5.240603955470223	-2.131582636964886	-0.8549221914525444	12.21032020547941	-0.003021992797949763	2.122823000530041	-2.944945792106986	6.034866453764346	6.034866453764371	1.444792860640297	-0.2413820462417457	-0.3827952229602964	-0.1482276114626767	-9.455003942634651e-09	3.695039455881032e-07	1.20392217850986e-08	4.836365079243634e-08	-5.45737324197464e-07	-3.327791776801015e-08	7.237902895487003e-08
